<?xml version="1.0" standalone="no"?>
<!DOCTYPE svg PUBLIC "-//W3C//DTD SVG 20010904//EN"
 "http://www.w3.org/TR/2001/REC-SVG-20010904/DTD/svg10.dtd">
<svg version="1.0" xmlns="http://www.w3.org/2000/svg"
 width="460.000000pt" height="1010.000000pt" viewBox="0 0 460.000000 1010.000000"
 preserveAspectRatio="xMidYMid meet">

<g transform="translate(0.000000,1010.000000) scale(0.100000,-0.100000)"
fill="#000000" stroke="none">
<path d="M1505 10079 c-265 -13 -337 -35 -386 -118 -46 -77 -60 -140 -75 -346
-8 -110 -17 -216 -20 -235 -23 -142 -47 -247 -91 -395 -17 -57 -97 -255 -121
-300 -9 -16 -15 -40 -14 -52 1 -13 -2 -23 -6 -24 -4 0 -27 -2 -52 -3 l-45 -4
30 15 30 14 -40 -5 c-22 -3 -46 -6 -54 -6 -11 0 -9 -4 5 -15 18 -13 15 -14
-28 -15 -27 0 -48 -4 -48 -10 0 -5 -8 -10 -18 -10 -29 0 -202 -90 -264 -137
-94 -72 -154 -152 -194 -260 -9 -26 -20 -52 -24 -58 -35 -53 -35 -18 -35
-3830 l0 -3701 52 -107 c63 -129 118 -204 199 -271 62 -51 209 -130 294 -159
118 -40 146 -41 1674 -34 1580 8 1668 11 1781 63 17 7 49 20 71 28 60 21 117
59 177 119 119 118 188 226 225 352 11 39 31 106 44 150 l23 80 0 1745 c0 960
-3 2134 -7 2610 -5 476 -11 1306 -14 1845 -3 558 -10 1002 -16 1030 -5 28 -13
73 -18 100 -9 54 -67 164 -87 165 -8 0 -1 -22 17 -57 46 -91 58 -125 58 -163
l1 -35 -22 51 c-12 28 -30 62 -39 77 -10 14 -18 33 -18 41 0 8 -5 18 -10 21
-6 4 -21 23 -34 43 -28 44 -157 182 -171 182 -6 1 -26 14 -45 30 -19 17 -40
30 -47 30 -7 0 -13 3 -13 8 0 8 -103 44 -180 63 -45 11 -458 18 -1082 19 -264
0 -308 2 -308 15 0 8 -9 19 -20 25 -11 6 -20 16 -20 22 0 7 -11 28 -24 47 -38
55 -91 273 -156 641 -12 69 -27 200 -40 355 -6 66 -16 139 -23 163 -18 58 -65
105 -150 147 -61 30 -92 38 -192 50 -130 16 -199 16 -430 4z m1836 -1642 c26
-9 101 -19 173 -23 115 -6 126 -9 121 -25 -9 -28 27 -40 108 -38 97 3 176 -7
196 -24 9 -8 24 -17 34 -20 18 -7 24 -27 7 -27 -5 0 -10 -9 -10 -21 0 -15 5
-19 15 -15 8 3 15 2 15 -3 0 -5 15 -16 33 -25 21 -10 26 -16 14 -16 -31 0 -12
-25 21 -28 22 -2 34 2 38 12 3 9 10 16 15 16 4 0 6 -6 3 -14 -3 -9 3 -17 15
-21 12 -3 19 -10 16 -15 -6 -10 15 -27 40 -32 18 -3 21 -13 25 -103 3 -55 3
-104 0 -110 -3 -5 -5 -37 -5 -70 0 -59 0 -60 -28 -58 -26 2 -27 0 -26 -40 2
-79 -29 -191 -58 -210 -7 -4 -13 -16 -13 -26 0 -9 -9 -27 -20 -39 -13 -14 -16
-23 -9 -28 6 -4 7 -9 2 -13 -9 -6 -24 -36 -63 -128 -12 -28 -29 -54 -38 -58
-13 -5 -13 -8 -4 -14 11 -6 10 -16 -3 -48 -9 -23 -15 -47 -14 -54 2 -8 -1 -27
-5 -44 -8 -27 -9 -28 -17 -10 -5 14 -7 3 -6 -32 1 -48 -2 -55 -33 -83 -18 -16
-28 -30 -22 -30 7 0 11 -8 10 -17 -3 -38 3 -62 17 -77 13 -13 13 -19 3 -35
-17 -27 3 -51 26 -32 8 7 20 10 26 6 14 -9 13 -32 -3 -38 -6 -2 -8 -8 -4 -13
4 -4 17 -3 28 4 21 13 62 7 94 -14 26 -19 32 -18 38 6 4 17 14 20 57 20 46 0
56 -4 91 -38 42 -41 48 -62 24 -82 -11 -9 -23 -7 -60 11 -25 12 -45 29 -45 38
0 11 -5 9 -20 -7 -27 -29 -26 -32 20 -32 33 0 40 -3 40 -20 0 -14 -7 -20 -24
-20 -30 0 -42 -16 -45 -62 -2 -26 2 -38 10 -38 7 0 25 -11 39 -25 21 -21 37
-27 80 -34 2 -1 -1 -6 -8 -13 -20 -20 -13 -36 18 -43 17 -4 30 -11 30 -16 0
-5 6 -9 14 -9 19 0 28 -27 10 -34 -8 -3 -28 -3 -45 1 -24 5 -36 0 -60 -23
l-30 -29 -17 22 c-13 17 -23 21 -41 16 -18 -4 -28 0 -42 18 l-19 24 6 -42 c5
-36 3 -42 -16 -48 l-22 -7 21 -15 c31 -21 8 -38 -63 -46 -32 -3 -64 -11 -70
-18 -8 -9 -7 -10 4 -4 12 6 12 4 -1 -9 -15 -16 -19 -16 -54 -2 -46 19 -74 20
-100 3 -44 -29 -120 -49 -203 -53 -64 -3 -89 -9 -95 -20 -7 -12 -11 -13 -24
-3 -12 10 -16 10 -23 -1 -5 -8 -15 -10 -26 -6 -10 4 -48 4 -86 0 -63 -6 -67
-8 -66 -30 2 -17 8 -24 23 -24 12 0 30 -7 41 -17 20 -16 20 -17 2 -35 -10 -10
-29 -18 -42 -18 -13 0 -26 -7 -30 -15 -3 -8 -14 -15 -25 -15 -11 0 -22 -4 -25
-9 -8 -12 11 -63 26 -72 6 -4 11 -17 12 -30 1 -19 6 -23 25 -21 14 2 21 0 17
-6 -3 -6 9 -27 28 -48 42 -46 38 -61 -15 -56 -37 4 -40 2 -35 -15 6 -18 0 -21
-66 -26 -44 -4 -77 -12 -83 -20 -5 -8 -28 -20 -50 -27 -22 -7 -44 -16 -50 -21
-5 -5 -18 -9 -30 -9 -11 0 -27 -9 -34 -19 -8 -11 -21 -17 -29 -13 -10 3 -13 0
-10 -9 3 -8 12 -13 21 -11 8 1 18 -5 21 -15 9 -31 11 -92 3 -99 -4 -4 -7 -3
-7 2 0 5 -19 10 -42 11 -24 1 -75 3 -115 5 l-71 3 5 -27 c5 -27 -14 -58 -35
-58 -5 0 -15 -6 -21 -14 -9 -11 -5 -15 21 -20 26 -5 30 -9 18 -16 -8 -5 -28
-10 -43 -10 -15 0 -44 -7 -64 -15 -20 -8 -38 -14 -40 -12 -9 10 11 36 30 39
19 3 19 4 -5 9 -23 5 -28 3 -28 -12 0 -11 -7 -19 -15 -19 -29 0 -14 -19 20
-26 19 -3 35 -10 35 -15 0 -12 -42 -39 -62 -39 -9 0 -24 -10 -33 -22 -8 -13
-30 -28 -47 -34 -43 -14 -46 -32 -8 -48 l32 -13 -34 -27 c-32 -25 -32 -27 -14
-41 16 -12 17 -17 6 -30 -18 -22 -29 -19 -22 7 5 21 4 21 -19 5 -13 -9 -37
-17 -53 -17 -16 0 -37 -6 -45 -14 -10 -9 -23 -11 -36 -6 -11 5 -14 9 -7 9 6 1
12 7 12 15 0 8 7 16 15 20 8 3 15 10 15 16 0 18 -28 11 -44 -12 -10 -14 -25
-21 -45 -20 -23 0 -30 -5 -35 -23 -4 -14 -12 -22 -19 -19 -17 6 -86 -66 -96
-101 -5 -20 -20 -35 -49 -50 -45 -23 -76 -57 -64 -70 4 -5 2 -5 -4 -2 -17 10
-81 -53 -89 -85 -4 -16 -11 -28 -16 -28 -5 0 -9 -6 -9 -13 0 -7 -20 -18 -45
-25 -33 -9 -48 -19 -55 -37 -5 -14 -16 -25 -23 -25 -17 0 -49 -34 -41 -43 4
-4 -1 -9 -10 -13 -24 -9 -19 -24 8 -24 13 0 26 -7 30 -15 4 -11 -2 -15 -24
-15 -19 0 -34 -7 -42 -20 -7 -11 -21 -20 -30 -20 -10 0 -18 -4 -18 -9 0 -5 -8
-17 -17 -27 -16 -15 -16 -17 0 -29 9 -7 17 -24 17 -39 0 -31 -24 -35 -70 -11
-20 10 -31 12 -36 4 -11 -18 11 -30 55 -31 27 0 45 -6 48 -14 7 -20 46 -17 69
4 11 10 33 23 49 28 l30 8 -40 4 c-46 4 -73 22 -33 22 41 0 128 22 128 33 0 5
6 4 14 -2 11 -9 16 -5 26 19 10 24 15 28 26 19 8 -6 14 -8 14 -3 0 5 5 2 10
-6 7 -9 8 -53 4 -115 -4 -55 -3 -97 1 -93 12 11 36 -19 29 -36 -9 -24 14 -71
41 -86 26 -14 57 -7 53 12 -4 17 28 22 35 4 7 -18 -32 -45 -74 -50 -42 -5 -52
-17 -40 -48 5 -14 7 -29 3 -33 -4 -4 9 -4 28 0 19 4 38 13 42 19 5 6 8 2 8
-10 0 -28 -14 -38 -76 -59 -41 -13 -54 -23 -68 -52 -16 -35 -16 -37 1 -54 10
-10 34 -21 53 -23 19 -3 36 -6 38 -7 4 -3 21 -6 38 -8 32 -2 2 -19 -48 -25
-36 -5 -48 -10 -38 -16 20 -12 9 -20 -41 -31 -39 -9 -58 -22 -59 -41 0 -3 16
-12 35 -18 19 -6 35 -14 35 -16 0 -15 -28 -30 -50 -29 -28 3 -40 -10 -40 -42
0 -17 6 -23 21 -23 17 0 20 -5 17 -23 -4 -20 -1 -23 23 -19 36 5 69 -14 70
-41 2 -22 2 -22 6 1 4 20 10 23 49 21 35 -2 44 -6 44 -21 0 -10 5 -18 11 -18
6 0 8 -8 4 -19 -5 -16 0 -20 22 -23 21 -2 29 -9 31 -28 l3 -25 89 5 c77 4 88
3 87 -11 -1 -13 -21 -19 -97 -28 -52 -6 -125 -11 -162 -11 -42 1 -68 -3 -68
-9 0 -13 5 -13 81 -15 65 -1 111 -29 87 -52 -14 -14 -192 -23 -243 -12 -16 4
-70 12 -120 18 -49 6 -103 16 -120 21 -16 6 -49 13 -71 15 -23 3 -55 9 -70 13
-29 8 -102 -2 -139 -18 -11 -4 -37 -16 -58 -25 -21 -9 -55 -16 -75 -16 -21 0
-42 -4 -48 -8 -5 -5 -29 -14 -54 -21 -25 -8 -59 -18 -77 -23 -18 -5 -35 -18
-38 -29 -4 -10 -11 -19 -18 -19 -22 0 -57 -44 -57 -72 l0 -28 -33 17 c-17 10
-46 28 -62 40 -17 11 -39 23 -50 25 -11 1 -26 9 -33 16 -7 6 -20 12 -28 12 -8
0 -14 6 -14 14 0 8 -11 17 -25 20 -13 3 -40 20 -59 36 -36 32 -59 39 -50 15 4
-8 13 -15 20 -15 8 0 19 -11 24 -25 5 -14 22 -30 37 -36 15 -5 46 -25 68 -43
22 -18 56 -42 75 -52 57 -31 83 -52 76 -62 -4 -7 -18 -7 -41 -1 -20 6 -43 9
-53 7 -9 -1 -17 0 -17 2 0 3 -27 29 -60 58 -33 29 -72 64 -87 77 -15 14 -33
25 -40 25 -7 0 -30 16 -51 35 -21 19 -43 35 -49 35 -6 0 -27 18 -48 39 -21 21
-48 42 -59 46 -12 3 -21 12 -21 19 0 7 -17 29 -37 49 -62 59 -73 73 -73 92 0
15 3 16 12 7 7 -7 15 -12 19 -12 18 0 44 126 32 156 -4 12 -8 12 -22 2 -14
-11 -14 -11 -5 2 21 28 23 59 6 70 -10 5 -12 10 -5 10 18 0 9 28 -20 58 -23
24 -27 37 -27 84 0 31 -5 60 -10 63 -16 10 -12 55 5 55 8 0 15 -4 15 -10 0 -5
7 -10 15 -10 7 0 19 -8 24 -17 8 -14 10 -7 5 27 -6 52 -23 92 -36 84 -4 -3 -9
0 -9 5 -3 26 -4 30 -11 37 -5 4 -8 21 -8 37 0 16 -9 45 -21 64 -15 24 -18 37
-11 46 7 8 7 18 2 27 -23 37 0 94 30 75 17 -11 21 16 6 45 -8 17 -13 39 -11
50 2 11 0 20 -4 20 -5 0 -11 15 -13 33 -3 29 -1 33 14 29 10 -2 18 -10 18 -18
0 -7 8 -18 19 -23 10 -6 22 -22 25 -37 6 -21 11 -25 31 -20 40 10 81 28 70 31
-70 18 -95 30 -95 46 0 11 12 20 37 27 l38 10 -42 1 c-39 1 -43 3 -43 26 0 14
9 35 20 47 27 29 25 37 -10 75 l-31 32 25 7 c14 3 29 3 35 0 18 -11 22 12 9
53 -11 34 -17 41 -43 43 l-30 3 3 68 c2 62 1 69 -18 74 -37 10 -23 33 19 33
l39 0 6 73 c10 111 13 129 29 174 9 22 12 45 9 49 -4 4 -2 4 5 0 6 -3 14 -2
18 4 4 7 12 7 25 0 16 -8 18 -5 22 33 3 23 0 45 -5 48 -5 4 -12 28 -14 54 -4
39 -3 46 11 43 9 -2 22 8 29 22 9 17 20 24 35 23 12 -2 22 2 22 7 0 6 7 10 16
10 11 0 14 5 9 18 -17 42 -24 78 -19 95 7 24 -21 84 -46 97 -11 6 -23 22 -26
35 -7 30 -8 30 -33 8 -16 -13 -19 -25 -15 -55 5 -35 4 -38 -19 -38 -15 0 -33
-10 -44 -24 -15 -19 -22 -21 -34 -12 -8 6 -13 19 -11 28 2 9 -4 31 -13 48 -17
33 -15 47 4 35 6 -3 9 -11 6 -16 -4 -5 -2 -16 3 -26 17 -30 24 22 12 83 -7 31
-10 95 -9 143 2 47 -1 93 -6 101 -5 8 -8 29 -6 46 1 18 -2 35 -8 39 -6 3 -11
19 -11 34 0 15 -8 43 -17 62 -23 46 -22 374 1 421 15 29 13 76 -4 88 -8 6 -27
131 -35 231 -5 56 -3 78 7 86 7 6 58 13 114 15 100 3 101 3 147 41 25 20 50
37 55 37 9 0 20 23 41 89 6 19 11 89 11 157 l0 124 26 6 c14 4 50 4 80 0 60
-7 67 -2 100 84 10 25 24 50 33 56 8 6 15 28 15 47 1 30 4 36 18 31 21 -6 62
32 54 52 -3 7 1 17 8 21 6 5 18 24 26 43 8 19 23 44 34 56 37 36 76 89 76 102
0 6 5 12 10 12 6 0 10 10 10 23 0 13 14 34 35 52 39 34 45 64 15 83 -28 17
-67 -2 -67 -34 0 -13 3 -27 8 -30 17 -10 9 -34 -11 -34 -31 0 -56 -30 -58 -70
-2 -31 -15 -49 -34 -50 -4 0 -6 19 -5 43 2 37 -1 42 -20 45 -24 4 -27 10 -17
36 4 12 20 16 55 16 37 0 51 4 56 17 4 10 1 19 -6 21 -11 4 -11 6 0 14 10 7 6
8 -13 4 -32 -7 -32 -7 -18 29 5 14 15 23 20 20 16 -10 40 21 40 53 0 28 2 30
33 28 17 -2 35 -4 39 -5 3 0 4 -18 2 -40 -6 -53 14 -70 46 -36 16 17 21 32 18
54 -4 27 -2 31 19 31 13 0 26 8 30 18 4 9 11 20 17 24 10 7 36 82 36 106 0 17
-16 15 -36 -5 -11 -12 -19 -14 -21 -6 -2 6 -13 21 -24 34 -12 14 -19 37 -19
61 0 36 2 39 22 32 33 -10 82 -7 86 6 3 7 9 4 16 -6 11 -14 10 -20 -4 -34 -12
-12 -16 -27 -13 -44 6 -27 33 -37 33 -11 0 8 8 22 19 32 10 10 18 29 16 43 -2
25 0 25 89 30 50 3 498 5 996 4 802 -1 910 -3 951 -17z m-2138 6 c-7 -2 -19
-2 -25 0 -7 3 -2 5 12 5 14 0 19 -2 13 -5z m-614 -50 c8 -14 12 -15 25 -4 9 7
16 11 16 8 0 -3 3 -12 6 -21 4 -11 1 -16 -10 -16 -16 0 -38 -38 -30 -51 2 -4
-6 -15 -17 -25 -19 -18 -21 -18 -30 -1 -8 13 -14 15 -30 7 -14 -8 -19 -7 -20
2 -1 7 -2 18 -4 23 -1 6 -3 16 -3 23 -1 6 -6 12 -12 12 -14 0 -12 -39 3 -54 8
-9 11 -37 7 -95 -3 -46 -2 -87 1 -93 12 -19 99 117 99 155 0 10 4 16 9 13 11
-7 38 24 43 49 5 30 38 32 38 3 0 -13 -5 -29 -11 -35 -14 -14 -1 -83 16 -83
16 0 47 -45 37 -54 -12 -13 -9 -75 4 -80 22 -8 4 -36 -23 -36 -20 0 -23 4 -18
20 3 11 3 20 -1 20 -15 0 -44 -34 -44 -51 0 -10 -8 -23 -19 -28 -10 -6 -24
-24 -31 -41 -7 -17 -20 -30 -30 -30 -19 0 -30 -19 -30 -51 0 -12 -10 -23 -26
-29 -32 -13 -37 -12 -29 0 3 6 -1 10 -9 10 -9 0 -16 5 -16 12 0 21 -69 -67
-70 -88 0 -23 -23 -48 -33 -38 -4 4 -21 1 -38 -6 -27 -12 -32 -11 -40 3 -6 10
-16 14 -26 10 -12 -5 -15 -2 -10 10 3 9 2 17 -4 17 -6 0 -8 9 -4 19 3 11 -1
36 -9 56 -11 26 -13 43 -6 61 13 34 3 71 -21 77 -16 4 -19 11 -13 34 10 41 27
70 32 55 7 -23 24 -12 18 13 -5 18 -1 28 13 37 10 6 17 18 14 25 -3 7 0 13 6
13 6 0 11 6 11 12 0 11 76 88 86 88 11 0 44 37 45 50 0 11 2 11 6 2 4 -9 14
-6 39 13 20 15 42 24 50 21 10 -4 14 -1 11 6 -4 13 38 46 60 47 7 1 16 -7 22
-16z m555 -120 c7 -53 -6 -70 -34 -46 -15 13 -16 21 -8 52 19 67 32 66 42 -6z
m-308 -45 c-4 -18 -13 -39 -21 -47 -13 -13 -14 -9 -13 32 2 39 6 47 21 47 17
0 19 -5 13 -32z m89 -98 c0 -43 -18 -51 -39 -18 -8 13 -6 22 8 37 27 30 32 26
31 -19z m-98 -55 c9 -24 -1 -27 -15 -5 -8 13 -8 20 -2 20 6 0 13 -7 17 -15z
m23 -73 c0 -7 -4 -10 -10 -7 -5 3 -10 16 -10 28 0 18 2 19 10 7 5 -8 10 -21
10 -28z m-60 -34 c1 -34 40 -75 60 -63 6 3 10 -5 10 -19 0 -14 -4 -26 -10 -26
-5 0 -10 5 -10 10 0 6 -5 9 -12 8 -7 -2 -17 7 -23 20 -5 12 -17 22 -25 22 -22
1 -50 25 -50 43 0 17 26 36 48 37 7 0 12 -13 12 -32z m-80 -99 c0 -11 -4 -17
-10 -14 -5 3 -10 13 -10 21 0 8 5 14 10 14 6 0 10 -9 10 -21z m128 -34 c9 -20
9 -25 -1 -25 -17 0 -37 20 -37 37 0 22 26 14 38 -12z m-383 -5 c-4 -12 -2 -20
5 -20 6 0 9 -8 6 -18 -4 -10 1 -27 9 -38 21 -27 18 -36 -7 -29 -25 8 -57 43
-58 62 0 6 4 23 10 37 12 31 45 37 35 6z m255 -4 c0 -8 -7 -16 -15 -20 -12 -4
-13 -2 -2 14 14 24 17 25 17 6z m-84 -91 c16 -25 16 -27 -5 -46 -12 -11 -19
-24 -16 -29 6 -9 -28 -76 -50 -99 -12 -12 -16 -12 -29 2 -19 18 -12 66 16 112
10 17 18 37 18 46 0 12 23 31 47 38 2 1 10 -10 19 -24z m224 -5 c0 -5 -4 -10
-10 -10 -5 0 -10 5 -10 10 0 6 5 10 10 10 6 0 10 -4 10 -10z m-241 -217 c-7
-10 -15 -20 -16 -22 -2 -2 -3 5 -3 17 0 14 6 22 16 22 14 0 15 -3 3 -17z
m3498 -430 c-3 -10 -5 -2 -5 17 0 19 2 27 5 18 2 -10 2 -26 0 -35z m53 -130
c0 -26 -12 -30 -29 -9 -10 11 -10 20 -1 37 10 17 14 19 21 8 5 -8 9 -24 9 -36z
m47 -415 c-3 -8 -6 -5 -6 6 -1 11 2 17 5 13 3 -3 4 -12 1 -19z m-687 -522 c0
-3 -4 -8 -10 -11 -5 -3 -10 -1 -10 4 0 6 5 11 10 11 6 0 10 -2 10 -4z m-32
-404 c2 -7 -7 -12 -22 -12 -27 0 -35 15 -13 23 17 7 30 3 35 -11z m-188 -102
c0 -5 -9 -9 -20 -7 -31 5 -36 17 -7 17 15 0 27 -4 27 -10z m-295 -130 c3 -6
-1 -7 -9 -4 -18 7 -21 14 -7 14 6 0 13 -4 16 -10z m-2645 -185 c0 -8 -4 -15
-10 -15 -5 0 -10 7 -10 15 0 8 5 15 10 15 6 0 10 -7 10 -15z m2230 -155 c11
-7 5 -10 -23 -10 -23 0 -36 4 -32 10 8 13 35 13 55 0z m298 -22 c6 -6 34 -11
62 -9 68 3 64 -15 -5 -22 -63 -6 -125 7 -125 28 0 18 51 20 68 3z m222 -13 c0
-15 -6 -25 -14 -25 -7 0 -16 11 -18 25 -4 19 -1 25 13 25 14 0 19 -7 19 -25z
m-633 -31 c-3 -3 -12 -4 -19 -1 -8 3 -5 6 6 6 11 1 17 -2 13 -5z m332 -30 c20
-29 177 -56 192 -33 6 10 9 8 9 -10 0 -15 4 -21 14 -18 7 3 26 -1 41 -9 15 -8
35 -14 44 -14 10 0 32 -11 49 -24 22 -15 41 -22 58 -18 24 4 25 2 19 -18 -6
-19 -4 -22 10 -16 10 3 24 1 33 -6 8 -7 17 -12 19 -10 11 8 33 0 33 -12 0 -8
3 -16 8 -18 8 -3 52 -64 52 -72 0 -8 -44 -3 -57 7 -13 10 -18 -2 -13 -33 3
-23 10 -26 20 -10 12 20 28 3 33 -35 2 -19 11 -31 24 -35 11 -3 33 -20 48 -37
15 -18 33 -33 40 -33 8 0 22 -11 32 -24 12 -15 32 -25 54 -27 19 -2 44 -10 57
-17 21 -14 22 -16 6 -33 -10 -11 -14 -22 -11 -26 4 -4 13 2 21 12 12 17 13 17
19 -4 6 -23 -17 -42 -40 -34 -7 3 -13 -2 -13 -11 0 -9 3 -16 8 -17 4 0 19 -2
35 -4 17 -2 27 1 27 10 0 16 51 26 68 13 17 -14 15 -28 -5 -51 -15 -15 -15
-19 -3 -17 34 5 40 0 34 -30 -5 -24 -3 -30 11 -30 9 0 15 -6 12 -12 -2 -7 0
-23 4 -35 10 -27 10 -27 -41 -7 -29 12 -38 20 -31 27 6 6 11 15 11 21 0 6 -5
5 -12 -2 -7 -7 -20 -12 -30 -12 -10 0 -18 -4 -18 -10 0 -5 -12 -21 -26 -35
l-27 -27 27 -26 c20 -21 28 -24 38 -14 9 9 9 12 0 12 -7 0 -12 5 -12 10 0 6
14 10 30 10 23 0 30 -4 30 -20 0 -11 5 -20 10 -20 6 0 10 -17 10 -37 0 -30 3
-35 11 -23 8 11 12 12 16 2 2 -6 9 -10 13 -7 5 3 11 1 15 -5 3 -5 -1 -10 -9
-10 -21 0 -28 -35 -24 -119 2 -49 -1 -71 -8 -71 -15 0 -26 28 -17 42 3 7 1 8
-5 4 -7 -4 -15 8 -22 31 -12 45 -35 83 -27 45 4 -15 1 -22 -6 -19 -7 2 -15 17
-18 33 -3 16 -10 28 -17 27 -7 -2 -12 2 -12 8 0 6 -25 33 -55 61 -31 28 -63
64 -71 80 -8 16 -44 56 -79 90 -36 33 -67 70 -71 82 -4 11 -14 26 -23 33 -14
11 -14 12 5 13 12 0 27 -7 34 -15 7 -8 21 -15 31 -15 12 0 16 5 13 15 -4 9 0
15 8 15 7 0 19 -14 25 -31 12 -32 33 -32 33 1 0 10 6 20 13 23 21 8 -14 60
-53 79 -57 29 -90 61 -90 88 0 17 -3 21 -8 12 -11 -17 -43 -4 -41 17 2 27 -13
61 -27 61 -8 0 -14 5 -14 10 0 6 -7 10 -15 10 -8 0 -15 5 -15 11 0 6 -12 9
-27 7 -20 -2 -29 -9 -31 -25 -2 -15 -10 -23 -22 -23 -28 0 -34 18 -16 45 9 13
16 31 16 40 0 8 6 15 13 15 8 1 7 4 -3 13 -8 7 -21 24 -29 40 -20 37 -98 73
-167 76 -32 1 -75 12 -107 26 -46 22 -66 25 -175 25 -107 0 -212 13 -212 27 0
13 32 64 37 59 4 -3 14 0 22 8 9 8 36 17 61 19 67 7 191 1 199 -9z m364 6 c46
0 29 -6 -35 -14 -50 -5 -58 -4 -58 10 0 13 6 15 31 10 17 -3 45 -6 62 -6z
m251 -296 c9 -3 16 -13 16 -20 0 -12 -4 -12 -20 -4 -11 6 -20 15 -20 20 0 12
3 12 24 4z m66 -25 c0 -17 62 -68 91 -74 26 -6 62 -35 43 -35 -25 1 -53 14
-48 22 4 6 -2 8 -15 3 -14 -4 -33 1 -55 14 -44 28 -58 45 -50 65 7 18 34 22
34 5z m128 -46 c-14 -17 -28 -16 -28 1 0 8 9 14 19 13 15 -1 17 -4 9 -14z
m-313 -53 c-3 -5 -13 -10 -21 -10 -8 0 -12 5 -9 10 3 6 13 10 21 10 8 0 12 -4
9 -10z m418 -157 c-7 -2 -21 -2 -30 0 -10 3 -4 5 12 5 17 0 24 -2 18 -5z m381
-33 c7 0 12 -15 13 -37 1 -21 7 -40 16 -44 8 -5 17 -20 21 -33 3 -13 15 -26
27 -29 17 -5 20 -11 17 -31 -3 -14 -2 -25 1 -24 20 2 30 -5 35 -26 3 -14 15
-28 26 -31 29 -9 24 -33 -7 -37 -23 -2 -27 -7 -25 -28 2 -14 8 -26 13 -28 5
-2 9 -18 9 -36 0 -19 8 -44 18 -57 33 -43 71 -116 65 -123 -7 -7 -77 63 -79
79 -1 5 -2 16 -3 23 0 6 -8 12 -16 12 -14 0 -20 23 -16 57 1 6 -9 13 -21 15
-13 2 -23 8 -23 13 0 6 -10 26 -22 46 -12 19 -23 51 -25 70 -1 19 -8 43 -15
55 -7 11 -10 23 -7 27 3 3 -2 21 -11 39 -33 62 -35 68 -35 104 0 29 3 35 16
30 9 -3 21 -6 28 -6z m-2091 -287 c2 -5 -8 -18 -23 -30 -23 -19 -29 -20 -34
-8 -9 26 44 61 57 38z m2287 -33 c0 -11 -4 -20 -9 -20 -6 0 -9 9 -8 20 1 11 5
20 9 20 4 0 8 -9 8 -20z m-2280 -110 c0 -6 11 -8 25 -4 18 4 27 1 31 -11 9
-22 -9 -33 -46 -27 -24 3 -30 9 -30 28 0 13 5 24 10 24 6 0 10 -5 10 -10z
m130 0 c0 -5 -4 -10 -10 -10 -5 0 -10 5 -10 10 0 6 5 10 10 10 6 0 10 -4 10
-10z m100 -26 c0 -15 -9 -17 -34 -8 -15 6 -15 8 1 19 20 15 33 11 33 -11z
m-27 -31 c-7 -2 -19 -2 -25 0 -7 3 -2 5 12 5 14 0 19 -2 13 -5z m-75 -20 c-21
-2 -55 -2 -75 0 -21 2 -4 4 37 4 41 0 58 -2 38 -4z m1692 -34 c0 -5 -4 -9 -10
-9 -5 0 -10 7 -10 16 0 8 5 12 10 9 6 -3 10 -10 10 -16z m-1510 -148 c0 -9
-23 -21 -41 -21 -4 0 -6 7 -3 15 7 16 44 21 44 6z m-244 -117 c12 -9 10 -11
-11 -11 -19 0 -25 4 -21 14 3 8 7 27 7 41 2 26 2 25 6 -3 2 -16 11 -35 19 -41z
m-1 -84 c-3 -5 -13 -10 -21 -10 -8 0 -14 5 -14 10 0 6 9 10 21 10 11 0 17 -4
14 -10z m105 -80 c21 14 113 13 105 -1 -4 -6 -19 -7 -35 -4 -15 3 -31 2 -34
-3 -7 -12 -106 -14 -106 -3 0 12 43 19 50 9 3 -4 12 -3 20 2z m295 -20 c3 -6
-1 -7 -9 -4 -18 7 -21 14 -7 14 6 0 13 -4 16 -10z m0 -2121 c99 -2 191 -6 205
-11 60 -17 380 -40 672 -46 354 -8 350 -7 350 -77 0 -24 -7 -45 -19 -57 -18
-17 -48 -20 -379 -33 -197 -8 -448 -20 -556 -26 -217 -13 -1196 -6 -1443 10
-77 5 -189 12 -250 16 -159 9 -170 11 -183 41 -15 32 -15 56 0 88 14 31 23 34
123 41 44 2 125 7 180 11 55 3 111 8 125 10 129 21 614 41 880 37 63 -1 196
-3 295 -4z m-426 -295 c-6 -7 -21 -12 -32 -11 -18 2 -22 -3 -22 -27 -1 -16 -7
-32 -14 -34 -10 -3 -11 3 -6 27 4 21 3 31 -5 31 -26 0 -1 25 31 30 46 8 63 2
48 -16z m144 14 c27 -13 35 -32 17 -43 -5 -3 -10 -1 -10 4 0 6 -14 11 -31 11
-30 0 -31 -2 -25 -30 3 -16 2 -30 -3 -30 -10 0 -24 78 -16 91 8 13 36 11 68
-3z m344 -12 c-2 -6 -14 -11 -26 -10 -11 0 -21 -5 -21 -13 0 -7 -4 -13 -10
-13 -5 0 -10 4 -10 9 0 5 -3 16 -6 24 -4 11 2 17 23 19 36 5 55 -1 50 -16z
m-873 8 c9 -3 16 -16 16 -27 0 -20 0 -20 -14 -2 -13 18 -18 18 -48 7 -48 -17
-55 -15 -28 8 24 20 46 25 74 14z m170 0 c19 -7 20 -33 2 -56 -21 -28 -36 -21
-36 15 0 44 7 52 34 41z m68 -26 c-15 -15 -24 -6 -16 16 5 12 10 14 17 7 8 -8
8 -14 -1 -23z m-404 4 c3 -11 0 -12 -17 -3 -11 6 -32 9 -46 5 -16 -4 -25 -2
-25 5 0 17 82 10 88 -7z m1178 -9 c-10 -10 -19 5 -10 18 6 11 8 11 12 0 2 -7
1 -15 -2 -18z m-906 -4 c0 -11 -4 -17 -10 -14 -5 3 -10 13 -10 21 0 8 5 14 10
14 6 0 10 -9 10 -21z m94 -45 c9 -23 7 -44 -4 -44 -5 0 -7 7 -4 15 4 8 1 22
-6 30 -7 9 -8 15 -2 15 5 0 13 -7 16 -16z m-74 -25 c0 -18 -2 -19 -15 -9 -8 7
-15 16 -15 21 0 5 7 9 15 9 9 0 15 -9 15 -21z"/>
<path d="M3223 8433 c9 -2 23 -2 30 0 6 3 -1 5 -18 5 -16 0 -22 -2 -12 -5z"/>
<path d="M3570 8390 l-35 -7 43 -2 c23 0 42 4 42 9 0 6 -3 9 -7 9 -5 -1 -24
-5 -43 -9z"/>
<path d="M3448 7523 c6 -2 18 -2 25 0 6 3 1 5 -13 5 -14 0 -19 -2 -12 -5z"/>
<path d="M3625 7460 c3 -5 10 -10 16 -10 5 0 9 5 9 10 0 6 -7 10 -16 10 -8 0
-12 -4 -9 -10z"/>
<path d="M3250 6930 c0 -5 5 -10 10 -10 6 0 10 5 10 10 0 6 -4 10 -10 10 -5 0
-10 -4 -10 -10z"/>
<path d="M3465 6820 c-3 -5 -1 -10 4 -10 6 0 11 5 11 10 0 6 -2 10 -4 10 -3 0
-8 -4 -11 -10z"/>
<path d="M4052 6598 c-18 -18 -14 -38 7 -38 11 0 21 -6 24 -12 2 -7 2 -3 0 10
-2 17 1 22 17 22 11 0 20 7 20 15 0 18 -50 21 -68 3z"/>
<path d="M4126 6415 c4 -8 16 -15 27 -15 20 0 20 0 1 15 -25 19 -35 19 -28 0z"/>
<path d="M3983 6393 c-18 -7 -16 -23 2 -23 8 0 15 7 15 15 0 8 -1 15 -2 14 -2
0 -9 -3 -15 -6z"/>
<path d="M2875 5470 c-3 -5 -1 -10 4 -10 6 0 11 5 11 10 0 6 -2 10 -4 10 -3 0
-8 -4 -11 -10z"/>
<path d="M2235 5229 c-58 -31 -78 -46 -68 -52 17 -11 61 6 98 38 46 39 30 46
-30 14z"/>
<path d="M2135 5160 c3 -5 10 -10 16 -10 5 0 9 5 9 10 0 6 -7 10 -16 10 -8 0
-12 -4 -9 -10z"/>
<path d="M2080 5134 c0 -9 5 -14 12 -12 18 6 21 28 4 28 -9 0 -16 -7 -16 -16z"/>
<path d="M360 5120 c0 -5 4 -10 9 -10 6 0 13 5 16 10 3 6 -1 10 -9 10 -9 0
-16 -4 -16 -10z"/>
<path d="M1590 5106 c-5 -5 -42 -11 -82 -13 -49 -1 -76 -7 -87 -17 -12 -12
-12 -16 -2 -16 10 0 10 -4 3 -12 -7 -9 -6 -23 4 -46 l13 -33 74 2 c41 1 83 -3
93 -9 10 -6 13 -12 7 -12 -7 0 -13 -4 -13 -9 0 -10 47 0 85 18 21 9 54 23 68
26 4 2 19 3 33 4 14 0 23 5 19 10 -8 14 23 41 40 35 15 -6 111 23 130 38 11
10 16 9 -106 11 -76 2 -101 6 -116 19 -14 13 -35 17 -85 16 -37 0 -72 -6 -78
-12z"/>
<path d="M246 4801 c-4 -5 -2 -12 3 -15 5 -4 12 -2 15 3 4 5 2 12 -3 15 -5 4
-12 2 -15 -3z"/>
<path d="M1527 4383 c-34 -9 -14 -35 28 -38 22 -1 34 0 28 2 -7 3 -13 13 -13
24 0 19 -8 21 -43 12z"/>
<path d="M1343 4366 c9 -7 17 -21 17 -30 0 -11 9 -16 30 -16 20 0 30 5 30 15
0 8 7 15 15 15 8 0 15 7 15 15 0 8 -4 15 -9 15 -5 0 -11 -7 -15 -15 -3 -8 -14
-15 -25 -15 -10 0 -21 7 -25 15 -3 8 -16 15 -28 15 -21 -1 -22 -2 -5 -14z"/>
<path d="M1430 4309 c0 -5 5 -7 10 -4 6 3 10 8 10 11 0 2 -4 4 -10 4 -5 0 -10
-5 -10 -11z"/>
<path d="M1475 4310 c3 -5 8 -10 11 -10 2 0 4 5 4 10 0 6 -5 10 -11 10 -5 0
-7 -4 -4 -10z"/>
<path d="M1844 3305 c-9 -22 1 -29 15 -11 8 10 9 16 1 21 -5 3 -13 -1 -16 -10z"/>
<path d="M1903 3263 c-22 -8 -14 -23 12 -23 14 0 25 4 25 9 0 11 -21 19 -37
14z"/>
<path d="M1310 3200 c-11 -6 -12 -12 -4 -20 13 -13 46 -2 41 13 -5 15 -20 18
-37 7z"/>
<path d="M1748 3183 c-21 -2 -38 -8 -38 -12 0 -14 135 -36 152 -24 9 5 -61 45
-72 41 -3 -1 -22 -3 -42 -5z"/>
<path d="M540 8354 c-15 -39 -12 -49 10 -29 21 19 27 55 10 55 -6 0 -15 -12
-20 -26z"/>
<path d="M462 8075 c0 -16 2 -22 5 -12 2 9 2 23 0 30 -3 6 -5 -1 -5 -18z"/>
<path d="M433 8019 c-4 -16 -11 -19 -29 -15 -17 5 -24 2 -24 -8 0 -20 29 -41
41 -29 11 11 30 73 22 73 -3 0 -7 -9 -10 -21z"/>
<path d="M480 7990 c0 -5 -7 -10 -16 -10 -11 0 -14 -6 -9 -21 5 -14 1 -25 -12
-34 -10 -7 -15 -17 -11 -21 4 -4 14 -1 23 6 8 7 15 9 15 6 0 -10 22 15 38 42
17 31 15 42 -8 42 -11 0 -20 -4 -20 -10z"/>
<path d="M2848 5003 c6 -2 18 -2 25 0 6 3 1 5 -13 5 -14 0 -19 -2 -12 -5z"/>
<path d="M3361 4534 c0 -11 3 -14 6 -6 3 7 2 16 -1 19 -3 4 -6 -2 -5 -13z"/>
<path d="M3592 4215 c-39 -41 -39 -45 -7 -45 16 0 25 6 25 15 0 8 7 15 15 15
16 0 19 17 7 37 -5 8 -18 1 -40 -22z"/>
<path d="M3577 4106 c-6 -14 25 -50 35 -41 3 3 3 17 0 30 -5 27 -27 34 -35 11z"/>
<path d="M3620 4029 c0 -7 10 -9 25 -7 13 3 22 2 20 -3 -3 -4 -1 -10 5 -14 5
-3 10 3 10 14 0 17 -6 21 -30 21 -16 0 -30 -5 -30 -11z"/>
<path d="M2940 8630 c36 -12 70 -12 70 0 0 6 -21 10 -47 9 -39 -1 -43 -2 -23
-9z"/>
<path d="M3348 8623 c7 -3 16 -2 19 1 4 3 -2 6 -13 5 -11 0 -14 -3 -6 -6z"/>
</g>
</svg>
