<?xml version="1.0" standalone="no"?>
<!DOCTYPE svg PUBLIC "-//W3C//DTD SVG 20010904//EN"
 "http://www.w3.org/TR/2001/REC-SVG-20010904/DTD/svg10.dtd">
<svg version="1.0" xmlns="http://www.w3.org/2000/svg"
 width="1280.000000pt" height="1280.000000pt" viewBox="0 0 1280.000000 1280.000000"
 preserveAspectRatio="xMidYMid meet">

<g transform="translate(0.000000,1280.000000) scale(0.100000,-0.100000)"
fill="#ffffff" stroke="none">
<path d="M5530 11559 c-126 -33 -263 -45 -345 -31 -33 6 -68 12 -78 14 -15 2
-39 -30 -107 -142 -81 -134 -100 -156 -166 -196 -16 -10 -17 -15 -6 -33 12
-20 8 -30 -38 -99 -55 -84 -57 -93 -35 -112 12 -10 13 -15 4 -21 -14 -8 99
-86 139 -96 59 -14 208 5 316 41 59 20 110 36 114 36 3 0 -11 -18 -33 -40 -21
-22 -37 -41 -34 -43 2 -2 14 -10 26 -19 22 -14 21 -15 -40 -44 -34 -16 -79
-39 -100 -52 -35 -21 -37 -25 -24 -40 9 -9 40 -30 71 -47 l54 -29 90 47 c105
55 146 63 53 10 l-64 -36 24 -20 c37 -30 116 -67 142 -67 13 0 45 7 71 16 26
9 50 14 52 11 8 -8 -71 -64 -136 -97 -101 -51 -216 -82 -327 -88 -99 -4 -103
-4 -162 27 -34 17 -61 27 -61 22 0 -14 111 -88 177 -118 103 -47 257 -39 418
22 l63 23 90 -45 c112 -57 200 -68 275 -35 102 45 210 181 309 389 48 100 49
105 32 118 -39 29 -135 76 -147 72 -7 -2 -38 9 -69 24 -64 32 -93 35 -141 15
-69 -29 -186 -191 -171 -238 7 -22 1 -22 -37 -2 l-30 15 36 40 c52 58 46 74
-50 126 -72 40 -85 43 -129 38 l-49 -6 21 33 c18 27 26 32 52 30 53 -6 221 64
283 117 17 15 20 14 40 -14 76 -105 127 -136 233 -143 105 -7 238 31 333 94
l38 24 63 -32 c88 -45 167 -45 264 0 37 17 80 41 96 52 15 11 30 20 33 20 3 0
-3 -26 -13 -57 -18 -58 -18 -58 3 -76 20 -16 119 -67 131 -67 2 0 12 26 21 58
32 109 161 343 247 445 22 27 26 28 77 21 l53 -7 -52 -26 c-101 -50 -212 -184
-212 -257 0 -47 29 -77 118 -120 80 -38 148 -44 219 -19 52 19 51 19 50 -11 0
-22 10 -32 60 -60 33 -19 65 -34 72 -34 6 0 17 17 24 38 12 38 100 227 116
250 8 10 17 9 47 -3 29 -12 48 -14 89 -6 29 5 53 8 54 7 2 -1 -20 -27 -48 -57
-56 -59 -83 -104 -74 -120 10 -15 108 -69 127 -69 9 0 24 15 33 33 9 17 36 53
60 80 l43 47 54 -35 c29 -20 76 -43 104 -52 l51 -16 69 32 69 32 40 -21 c21
-11 47 -20 57 -20 14 0 16 -6 12 -29 -5 -24 -1 -32 28 -54 30 -23 91 -57 101
-57 2 0 12 20 21 44 26 67 69 121 138 172 98 72 101 73 76 17 l-20 -46 33 -29
c31 -25 106 -57 112 -47 1 2 28 56 60 120 66 132 173 279 234 324 23 16 42 33
42 37 1 11 -87 58 -121 64 -18 3 -55 15 -82 26 -42 17 -54 18 -100 8 -28 -7
-88 -30 -133 -52 -61 -30 -86 -38 -95 -30 -7 6 -36 19 -63 30 l-50 20 -47 -46
-48 -46 -47 17 c-101 36 -175 13 -302 -94 -71 -59 -73 -60 -107 -49 -20 7 -51
9 -70 6 -19 -4 -34 -5 -34 -2 0 3 50 33 112 68 l111 62 -39 18 c-101 46 -101
46 -215 -17 -57 -31 -108 -61 -113 -66 -6 -5 -14 -9 -20 -9 -14 0 34 48 71 71
18 12 33 25 33 29 0 5 -31 19 -70 31 -59 19 -73 21 -93 10 -32 -17 -93 -74
-144 -136 -40 -47 -43 -48 -60 -32 -10 9 -40 26 -66 37 -26 12 -47 23 -47 27
0 5 34 -1 62 -12 17 -7 73 107 64 130 -5 15 -17 16 -336 40 -465 36 -459 37
-495 -35 -14 -27 -25 -58 -25 -69 0 -17 4 -19 33 -10 33 10 207 2 207 -10 0
-3 -14 -26 -31 -51 -16 -25 -48 -76 -71 -115 -22 -38 -42 -72 -44 -74 -2 -2
-15 4 -29 13 -15 10 -45 24 -67 32 l-41 14 -58 -55 c-58 -55 -166 -115 -209
-115 -24 0 -24 4 -6 38 8 15 17 40 21 55 8 40 129 158 194 190 l53 26 32 -23
c34 -26 79 -50 114 -60 18 -6 22 -3 22 12 0 29 -53 71 -145 117 -100 49 -154
52 -234 11 -71 -37 -156 -117 -194 -185 -34 -60 -108 -115 -203 -150 -93 -35
-114 -35 -50 1 70 39 147 112 166 158 12 30 11 37 -9 75 -12 23 -42 64 -65 91
-43 48 -44 49 -102 49 -69 -1 -150 -34 -218 -90 l-43 -35 -27 40 c-14 22 -39
46 -55 55 -34 17 -106 22 -166 11 -25 -4 -52 -3 -70 5 l-30 12 40 9 c22 4 68
18 103 29 l63 21 -22 25 c-26 27 -102 64 -128 62 -9 -1 -63 -14 -121 -30z m2
-229 c-25 -58 -48 -109 -52 -113 -4 -5 -33 8 -65 28 -80 52 -131 72 -198 80
l-57 7 22 37 c41 69 30 66 220 66 l174 0 -44 -105z m3684 22 c-51 -63 -60 -69
-126 -91 -39 -12 -74 -20 -78 -17 -20 21 194 170 251 175 4 1 -17 -30 -47 -67z
m-551 -53 c-48 -50 -206 -184 -236 -200 -63 -33 113 154 195 209 70 45 89 41
41 -9z m-2467 -33 c-40 -35 -136 -91 -144 -83 -12 12 141 116 171 116 6 0 -7
-15 -27 -33z m-327 5 c-15 -26 -62 -65 -130 -105 -109 -64 -118 -59 -73 34 23
47 33 57 72 72 25 9 67 17 93 17 44 1 47 -1 38 -18z m1769 9 c0 -6 21 -20 48
-32 26 -13 49 -24 51 -25 2 -1 -8 -22 -23 -47 l-26 -44 -40 15 -40 16 -49 -46
c-51 -48 -137 -97 -170 -97 -18 0 -19 3 -9 33 13 39 65 111 110 153 66 62 148
103 148 74z m1250 -106 c-64 -37 -153 -110 -179 -149 -13 -19 -26 -33 -29 -30
-9 9 67 148 113 207 l46 57 45 -31 46 -30 -42 -24z m-3526 48 c3 -5 1 -25 -5
-44 -21 -78 -169 -170 -347 -217 -46 -12 -87 -21 -92 -19 -5 2 21 48 58 103
75 110 104 131 226 166 65 19 151 24 160 11z m662 -189 c-6 -7 -66 10 -66 19
0 5 5 18 11 30 10 19 12 18 35 -13 13 -18 22 -34 20 -36z m62 -245 c-20 -29
-106 -103 -113 -96 -7 7 102 118 116 118 7 0 6 -8 -3 -22z m-190 -233 c29 -14
56 -25 62 -25 20 0 9 -19 -42 -75 -66 -73 -133 -107 -207 -107 -31 0 -66 4
-79 9 -20 8 -17 12 44 47 84 48 154 117 154 151 0 31 4 31 68 0z"/>
<path d="M4254 11460 c-157 -41 -194 -69 -194 -144 0 -28 4 -68 9 -89 l9 -37
-92 -44 c-50 -24 -127 -68 -170 -96 l-80 -52 -35 17 c-77 37 -155 45 -297 30
l-68 -8 63 69 c71 77 135 170 145 210 5 20 1 33 -14 49 -31 33 -133 85 -167
85 -37 0 -126 -26 -178 -52 -59 -30 -146 -98 -140 -109 4 -5 33 -23 66 -40
l60 -30 47 34 c52 38 152 91 158 84 7 -7 -63 -96 -130 -165 -33 -35 -109 -105
-168 -155 -60 -50 -108 -96 -108 -103 0 -7 33 -29 74 -50 l74 -38 132 53 c73
29 174 62 224 72 86 18 226 26 226 13 0 -3 -9 -17 -20 -31 -23 -29 -25 -51 -7
-73 16 -20 85 -74 115 -89 22 -12 23 -11 17 8 -17 54 92 150 278 247 60 31
111 54 113 51 3 -3 1 -28 -4 -57 -9 -46 -7 -55 10 -72 25 -25 105 -61 122 -55
7 3 16 27 20 54 8 61 58 202 90 258 14 24 39 54 56 68 16 14 26 28 21 31 -5 3
-12 35 -16 72 -9 89 -25 104 -107 103 -35 0 -95 -8 -134 -19z m24 -195 c-9
-20 -18 -25 -49 -25 -56 0 -57 17 -2 34 64 20 64 20 51 -9z"/>
<path d="M3666 11215 c-60 -21 -65 -32 -31 -60 17 -13 49 -29 71 -35 35 -10
46 -9 75 5 18 10 53 18 76 19 24 0 43 4 43 7 0 13 -139 79 -166 79 -16 -1 -46
-7 -68 -15z"/>
<path d="M6795 10821 c-97 -26 -157 -51 -152 -64 2 -6 34 -28 71 -48 l68 -37
52 23 c78 34 246 73 246 57 0 -26 -183 -159 -358 -261 -65 -38 -76 -41 -90
-29 -23 19 -69 38 -92 38 -10 0 -32 -17 -49 -38 -31 -39 -108 -99 -116 -90 -9
8 55 99 104 148 26 26 63 56 81 65 32 16 34 16 80 -9 57 -31 60 -31 60 -8 0
25 -33 53 -111 96 -73 40 -113 45 -166 19 -84 -39 -201 -180 -218 -259 -9 -46
29 -85 131 -136 83 -41 85 -41 137 -29 30 6 69 22 88 35 34 24 34 24 71 5 36
-19 39 -18 155 2 65 11 181 23 258 26 130 5 143 4 183 -16 62 -32 51 -6 -17
37 -72 47 -127 67 -210 79 l-63 8 97 64 c110 72 203 154 216 189 14 38 -5 58
-98 104 -83 41 -91 43 -187 45 -74 2 -120 -2 -171 -16z"/>
<path d="M7942 10681 c-132 -126 -297 -198 -495 -216 l-77 -7 121 -90 c185
-136 563 -479 662 -601 116 -142 216 -282 230 -320 12 -34 14 -114 8 -323 -3
-113 -1 -136 16 -175 26 -58 38 -67 119 -84 142 -29 158 -83 174 -585 12 -383
13 -690 2 -690 -8 0 -135 256 -197 395 -62 139 -191 472 -246 635 -83 246
-109 366 -116 531 -5 127 -4 143 21 228 14 51 26 96 26 101 0 13 -203 13 -310
0 -75 -9 -157 -28 -205 -46 -12 -5 -15 3 -15 40 0 25 -9 128 -20 229 -17 153
-25 191 -48 237 -65 133 -187 135 -403 9 -56 -32 -304 -204 -333 -230 -4 -4
10 -17 32 -28 80 -41 131 -143 156 -313 28 -187 18 -329 -49 -699 -53 -288
-119 -548 -204 -804 -58 -175 -170 -487 -177 -494 -4 -3 -4 37 0 89 3 52 8
176 11 275 4 99 13 261 21 360 7 99 23 360 34 580 23 464 29 527 76 852 53
372 83 444 224 546 24 17 22 18 -105 13 -360 -15 -571 -110 -669 -303 -53
-105 -86 -440 -181 -1828 -19 -286 -37 -529 -40 -541 -5 -22 -43 -44 -75 -44
-11 0 -27 11 -36 25 -18 27 -14 83 97 1460 41 504 50 658 46 770 -6 168 -29
258 -78 299 -76 64 -130 23 -410 -314 -85 -102 -181 -220 -214 -262 -33 -43
-63 -77 -66 -78 -16 -1 19 334 50 485 44 208 83 316 155 430 21 31 35 59 33
61 -7 7 -146 -46 -221 -83 -260 -131 -504 -332 -567 -468 -92 -198 -136 -529
-141 -1067 -2 -142 -6 -258 -10 -258 -4 0 -10 10 -13 23 -15 48 -166 418 -217
532 -86 192 -197 373 -337 556 l-20 26 97 32 c113 37 286 118 385 180 37 24
67 44 67 44 0 1 -25 0 -56 -1 -69 -5 -97 17 -119 92 -40 135 2 254 164 463
119 153 290 310 447 410 21 13 19 13 -245 -72 -447 -144 -777 -205 -1106 -205
-317 0 -484 42 -817 202 l-167 81 -77 -72 c-135 -124 -324 -202 -529 -217 -74
-6 -85 -9 -65 -17 14 -6 90 -43 170 -82 288 -142 500 -295 741 -535 211 -210
300 -322 383 -481 125 -242 188 -461 206 -717 15 -228 47 -292 162 -322 46
-13 66 -40 85 -118 20 -78 29 -398 14 -498 -14 -98 -3 -166 32 -202 19 -19 31
-23 51 -18 56 14 71 97 52 290 -7 72 -6 90 5 97 24 15 29 10 56 -48 59 -134
145 -641 169 -998 9 -119 18 -122 -126 39 -289 324 -504 645 -709 1056 -255
514 -394 977 -395 1325 -1 160 12 224 56 280 l21 26 -39 -7 c-156 -28 -306
-88 -404 -163 -101 -76 -176 -184 -215 -311 -28 -92 -36 -321 -19 -595 8 -132
13 -300 12 -373 l-3 -132 -56 77 c-128 176 -270 299 -393 337 -89 28 -205 19
-288 -22 -127 -63 -245 -181 -373 -373 -67 -101 -182 -309 -170 -309 4 0 28
17 54 39 73 61 108 75 181 76 180 1 331 -167 495 -550 109 -257 223 -640 274
-921 138 -769 28 -1660 -323 -2611 -153 -415 -387 -889 -617 -1247 -32 -49
-56 -92 -55 -94 2 -2 98 27 212 64 233 74 1075 316 1081 310 14 -14 -168 -435
-328 -756 -64 -129 -116 -236 -115 -237 6 -6 281 258 348 334 146 165 271 359
418 646 l75 147 80 27 c133 45 228 34 261 -29 18 -34 17 -114 -1 -198 -24
-108 -17 -178 19 -202 25 -17 65 -8 86 20 20 24 22 35 16 107 -22 280 -19 331
22 378 38 43 131 4 170 -73 19 -38 22 -60 22 -151 0 -114 -14 -205 -61 -391
-43 -173 -37 -234 30 -291 58 -49 149 -27 188 45 26 49 23 146 -9 243 -48 148
-63 262 -63 470 0 183 1 192 25 240 25 49 26 50 105 73 44 12 93 24 109 25
l29 2 83 -300 c191 -689 294 -939 461 -1115 38 -41 87 -80 125 -100 54 -29 75
-35 149 -38 62 -3 103 1 145 13 117 34 271 130 408 257 l59 54 -34 0 c-121 0
-222 202 -424 844 -41 129 -72 236 -70 238 9 9 115 -59 184 -118 191 -166 343
-449 412 -770 20 -91 23 -134 23 -330 0 -247 -11 -328 -73 -505 -16 -47 -28
-85 -26 -85 8 0 217 128 305 185 245 163 364 318 425 557 l23 93 4 -265 c5
-422 2 -473 -26 -535 -18 -40 -34 -59 -61 -72 l-37 -19 74 -23 c189 -57 385
-65 500 -22 107 41 190 139 222 265 9 32 31 192 51 355 129 1084 191 1495 326
2181 90 456 253 1160 359 1555 67 249 70 258 162 440 77 152 152 261 242 351
100 100 164 135 259 142 55 4 66 7 55 17 -35 33 -266 180 -326 207 -270 124
-487 97 -677 -83 -238 -227 -388 -603 -580 -1459 -120 -536 -172 -749 -174
-714 -6 92 -112 637 -166 854 -80 316 -208 694 -273 799 -152 249 -515 291
-892 102 -44 -22 -90 -47 -102 -55 -22 -15 -20 -16 30 -16 135 0 238 -92 336
-301 229 -488 417 -1344 606 -2763 12 -87 19 -160 17 -162 -2 -2 -12 22 -21
54 -49 154 -158 324 -308 478 -101 104 -107 116 -87 173 14 39 29 36 44 -9
l11 -34 34 49 c71 103 95 197 66 254 -17 32 -78 89 -124 117 -30 17 -32 22
-32 71 0 47 5 60 43 110 24 32 60 81 80 109 l37 52 -47 39 c-97 80 -173 131
-207 137 -45 9 -99 -14 -149 -62 -35 -33 -97 -114 -97 -125 0 -2 22 -2 48 1
42 4 53 0 92 -30 25 -19 51 -46 58 -60 14 -29 34 -129 28 -136 -3 -2 -51 24
-108 59 -89 55 -314 175 -358 192 -11 4 2 22 50 69 74 71 177 143 289 201 66
34 83 38 126 35 31 -3 66 -14 93 -31 23 -15 42 -25 42 -21 0 3 -19 42 -41 85
-71 136 -171 227 -240 217 -32 -5 -35 5 -14 42 24 43 19 101 -15 152 -31 47
-108 112 -168 142 -17 9 -32 20 -32 24 0 8 162 63 168 58 1 -2 -1 -14 -6 -27
-5 -13 -12 -37 -16 -53 -6 -26 -5 -28 8 -17 21 18 97 134 131 201 22 44 65
153 65 166 0 2 -20 -5 -45 -16 -72 -31 -202 -68 -300 -86 -89 -16 -450 -32
-478 -21 -19 7 -10 57 10 57 8 0 23 -10 33 -22 l18 -23 32 30 c18 17 54 56 82
87 l49 57 -25 106 c-14 59 -26 112 -26 118 0 6 23 -20 51 -58 77 -106 198
-243 234 -265 65 -40 134 -18 219 69 l50 50 -37 -6 c-25 -4 -44 0 -62 11 -36
23 -209 245 -419 533 l-38 53 -61 -42 c-34 -23 -78 -54 -98 -70 l-37 -28 19
-73 c10 -39 19 -78 19 -86 0 -16 11 -24 -179 122 -77 59 -152 112 -166 117
-51 20 -109 12 -181 -25 -57 -29 -144 -95 -144 -109 0 -2 11 -1 25 2 51 9 76
-36 166 -307 l83 -250 -33 -86 c-18 -48 -31 -88 -29 -90 2 -2 54 -22 117 -44
62 -22 115 -41 117 -44 2 -2 -13 -36 -33 -75 -43 -84 -45 -111 -13 -176 31
-60 96 -121 188 -175 39 -23 72 -45 72 -49 0 -4 -16 -17 -35 -29 -32 -21 -134
-136 -156 -175 -8 -16 -7 -17 16 -8 13 5 32 7 40 3 35 -13 82 -141 145 -393
17 -69 33 -127 35 -129 3 -2 22 12 44 32 l40 36 73 -20 c100 -28 284 -101 398
-160 117 -60 142 -91 148 -185 l4 -63 -88 49 c-195 110 -432 184 -693 217
l-64 8 -34 125 c-156 569 -405 1414 -553 1880 -87 275 -134 439 -127 446 2 2
37 -11 79 -30 117 -54 208 -76 320 -76 172 0 321 65 468 206 l77 74 6 -78 c11
-139 44 -201 118 -223 113 -34 284 70 588 359 l145 137 -59 6 c-52 6 -63 11
-96 47 -75 80 -89 192 -89 707 0 757 37 1235 116 1515 28 99 93 237 125 265
l22 20 -7 -115 c-18 -312 -37 -741 -52 -1175 -24 -664 -13 -798 75 -943 94
-156 111 -269 66 -442 -29 -111 -31 -150 -10 -190 40 -77 149 -61 171 25 4 16
-6 88 -25 180 -34 169 -36 196 -19 246 19 58 46 89 78 89 16 0 32 -4 35 -10
10 -16 36 -12 51 8 7 9 14 40 14 67 1 94 14 123 87 197 37 37 70 68 74 68 3 0
9 -78 12 -172 3 -95 13 -213 22 -263 33 -181 55 -375 67 -588 11 -198 10 -230
-7 -351 -15 -112 -16 -140 -5 -184 14 -59 37 -79 70 -62 35 19 53 69 50 135
-13 218 0 343 33 332 18 -6 27 -53 39 -219 13 -177 0 -434 -28 -548 -20 -79
-23 -202 -6 -251 17 -49 45 -73 75 -65 52 13 68 120 42 296 -22 158 -30 449
-16 582 15 140 33 196 73 235 40 37 60 48 138 72 83 26 146 69 228 155 220
232 466 754 657 1396 45 154 59 184 98 227 19 22 22 22 39 6 33 -30 50 -110
55 -269 6 -169 -8 -387 -37 -563 -11 -64 -20 -135 -20 -158 0 -58 27 -121 59
-137 73 -37 123 -26 148 31 16 39 15 104 -3 358 -7 103 6 169 37 186 32 16 64
-12 104 -91 71 -140 146 -260 313 -498 59 -83 101 -182 123 -292 24 -118 46
-169 83 -193 37 -24 72 -21 119 11 63 43 75 45 102 18 34 -34 57 -123 64 -251
6 -103 5 -111 -15 -130 -71 -68 -287 -277 -392 -380 l-123 -120 21 55 c75 191
143 315 205 369 43 37 107 71 135 71 34 0 23 13 -55 63 -148 97 -327 155 -430
141 -163 -22 -257 -108 -383 -352 -261 -505 -453 -1243 -573 -2196 l-33 -259
39 -31 c22 -17 52 -42 68 -56 l28 -25 -39 -42 c-145 -152 -320 -527 -382 -818
-27 -126 -37 -346 -21 -441 41 -237 267 -544 551 -748 l52 -37 -8 68 c-4 37
-7 136 -7 218 3 498 199 899 594 1211 74 59 211 154 222 154 8 0 -82 -200
-173 -385 -85 -172 -175 -319 -230 -374 -60 -60 -151 -87 -201 -61 -30 17 -23
2 38 -74 151 -187 324 -328 455 -367 270 -82 433 102 835 945 74 155 139 286
144 291 7 7 15 4 25 -9 22 -31 17 -150 -16 -343 -33 -191 -36 -236 -19 -315 9
-39 22 -63 49 -91 44 -43 83 -48 124 -16 68 54 76 160 22 321 -52 155 -69 261
-69 423 1 157 17 255 57 333 27 54 68 92 97 92 27 0 24 -32 -12 -142 -24 -72
-29 -103 -24 -137 11 -74 74 -117 131 -89 76 37 88 119 35 251 -42 104 -41
136 4 176 67 59 127 32 105 -47 -13 -48 -13 -118 0 -143 14 -26 55 -24 74 3
20 29 20 62 0 121 -30 88 -3 118 126 138 82 12 129 8 314 -27 398 -77 812
-263 1166 -524 58 -43 194 -160 301 -258 106 -99 195 -177 197 -173 1 3 -74
174 -167 378 -436 957 -668 1724 -766 2533 -22 182 -31 666 -16 852 15 179 31
289 88 603 84 468 141 678 246 897 89 188 160 237 292 203 63 -17 164 -69 213
-110 106 -89 -45 93 -233 280 -317 316 -565 432 -787 365 -60 -18 -156 -88
-209 -154 -93 -115 -130 -200 -299 -681 -237 -678 -566 -1585 -579 -1598 -4
-4 -11 23 -14 60 -11 129 -71 235 -153 269 -83 35 -231 10 -361 -61 -33 -18
-63 -31 -66 -29 -5 5 1 83 9 122 7 34 60 62 120 62 65 0 187 31 256 66 280
140 476 453 543 864 69 430 -22 1043 -233 1568 l-50 122 47 39 c106 87 343
236 449 282 23 10 42 20 42 21 0 2 -7 28 -15 58 -21 78 -19 211 5 303 10 42
40 118 65 169 92 183 216 339 464 581 88 86 161 159 161 161 0 2 -28 -5 -62
-16 -138 -43 -460 -120 -636 -153 -262 -48 -425 -65 -662 -72 -504 -13 -866
82 -1238 326 -68 45 -126 81 -130 81 -4 -1 -44 -36 -90 -79z m-3818 -322 c-10
-12 -51 -46 -91 -76 -189 -142 -273 -248 -295 -374 -10 -58 -11 -60 -28 -42
-9 10 -64 70 -120 133 -57 63 -117 130 -134 147 -16 18 -28 35 -25 37 2 2 58
11 124 20 188 25 486 112 551 161 29 22 40 18 18 -6z m5612 -421 c-139 -141
-215 -241 -271 -360 -42 -87 -68 -204 -62 -270 2 -27 3 -48 2 -48 -7 0 -467
742 -462 746 2 3 38 -4 78 -15 181 -49 352 -51 554 -6 83 19 278 75 292 84 0
1 -58 -59 -131 -131z m-713 -1936 c38 -42 72 -198 102 -470 20 -186 32 -576
18 -571 -17 6 -169 178 -208 234 l-35 51 -2 314 c-3 346 1 371 59 432 31 33
44 35 66 10z m-6561 -321 c2 -22 1 -66 -2 -98 l-5 -58 -17 45 c-20 51 -23 102
-8 131 16 30 28 23 32 -20z m219 -364 c9 -7 51 -70 94 -142 127 -211 282 -433
433 -621 l42 -51 -131 -158 -131 -157 -23 -111 c-34 -159 -67 -365 -120 -732
-62 -439 -98 -653 -156 -940 -68 -337 -210 -915 -233 -950 -11 -16 -416 -221
-416 -211 0 2 25 44 55 94 313 519 522 1204 612 2002 25 222 25 890 0 1108
-23 200 -61 427 -98 582 -33 135 -33 202 -3 267 17 35 45 43 75 20z m1591
-1726 c12 -25 22 -76 25 -122 l6 -79 -25 0 c-41 0 -88 12 -88 22 0 5 14 27 32
49 l32 40 -27 82 c-15 46 -27 87 -27 92 0 19 54 -43 72 -84z m4592 -30 c20
-13 44 -41 57 -67 20 -42 21 -56 16 -157 -4 -76 -16 -151 -36 -232 -39 -150
-39 -152 -1 -125 54 38 245 235 299 308 30 39 55 72 58 72 2 0 -3 -15 -10 -32
-324 -772 -501 -1187 -506 -1182 -3 3 -65 301 -137 662 -129 648 -131 657
-112 678 26 30 105 71 169 89 71 20 158 13 203 -14z m-4466 -460 c117 -38 207
-85 228 -116 9 -14 19 -45 22 -70 6 -57 -1 -57 -109 -3 -61 30 -103 61 -161
118 -66 65 -92 100 -74 100 2 0 45 -13 94 -29z m449 -226 l28 -24 -47 -1 c-49
0 -61 13 -36 38 17 17 23 15 55 -13z m5651 -257 c73 -358 154 -622 299 -972
29 -71 51 -131 49 -133 -2 -3 -62 28 -132 68 -71 39 -158 88 -194 108 l-65 36
-11 110 c-27 252 -37 583 -25 800 6 116 11 218 11 228 0 9 3 17 8 17 4 0 31
-118 60 -262z m-614 -308 c20 -184 36 -347 36 -361 l0 -27 -167 54 c-91 30
-169 56 -172 59 -2 3 54 149 125 326 89 220 131 314 136 302 3 -10 23 -169 42
-353z m-5329 325 c39 -13 78 -25 88 -25 14 0 17 -9 17 -52 0 -51 -2 -55 -49
-95 -28 -24 -52 -43 -55 -43 -2 0 -8 15 -11 33 -4 17 -20 70 -36 116 -29 85
-31 91 -26 91 1 0 34 -11 72 -25z m-1290 -277 l45 -196 0 -236 0 -236 -27 -6
c-16 -4 -107 -29 -203 -55 -96 -26 -176 -47 -177 -45 -2 1 18 63 42 137 49
142 93 283 182 574 82 271 86 281 89 270 2 -5 24 -98 49 -207z m4675 -230 c32
-146 60 -275 62 -287 2 -19 -6 -26 -56 -47 -32 -13 -95 -48 -140 -78 -44 -30
-82 -50 -84 -46 -5 14 25 166 83 420 30 129 57 252 61 273 3 21 8 36 11 34 2
-3 30 -124 63 -269z m-2670 -555 c0 -44 -7 -52 -28 -31 -13 13 -17 90 -5 102
14 14 33 -28 33 -71z"/>
<path d="M9775 3284 c-27 -19 -56 -42 -62 -51 -32 -42 2 -184 65 -274 l39 -55
-59 -38 c-33 -21 -64 -49 -70 -62 -25 -55 64 -184 160 -233 58 -29 105 -27
169 9 l54 30 60 -48 c57 -47 112 -72 157 -72 11 0 27 -11 35 -23 l15 -24 -66
24 c-174 63 -329 80 -402 43 -38 -19 -79 -69 -114 -138 -21 -41 -15 -50 20
-28 127 84 492 -39 939 -315 188 -116 216 -129 285 -129 44 0 49 3 72 38 14
20 35 56 47 80 l21 42 -49 0 c-27 0 -66 7 -87 16 -42 17 -284 166 -284 174 0
3 22 15 49 26 l49 22 68 -69 c88 -89 137 -114 208 -105 39 4 62 2 85 -10 27
-13 40 -14 79 -5 140 35 192 90 200 215 10 169 -109 366 -221 366 -30 0 -91
-19 -186 -59 -40 -17 -74 -31 -76 -31 -2 0 -7 15 -10 33 -13 56 -64 146 -113
197 -42 44 -53 50 -89 50 -45 0 -126 -38 -160 -75 l-21 -24 -30 52 c-34 60
-109 133 -147 143 -36 9 -150 -49 -173 -88 -9 -15 -19 -28 -22 -28 -4 0 -16
-9 -28 -20 l-22 -21 0 30 c0 90 -91 285 -177 380 -91 101 -128 111 -208 55z
m110 -151 c24 -32 59 -84 76 -116 l31 -59 -30 16 c-33 17 -75 63 -98 108 -26
49 -44 108 -34 108 5 0 30 -26 55 -57z m137 -255 c9 -29 14 -54 13 -56 -2 -2
-28 11 -59 29 l-57 31 33 24 c18 13 38 23 44 24 6 0 18 -24 26 -52z m419 -133
c47 -96 74 -226 52 -248 -3 -4 -17 3 -30 15 -24 22 -31 48 -13 48 17 0 11 16
-29 76 -45 68 -71 139 -71 191 l0 37 31 -30 c16 -16 44 -56 60 -89z m-247 -40
c7 -29 7 -29 -13 -11 -16 15 -21 30 -20 70 l1 51 12 -40 c7 -22 16 -53 20 -70z
m-288 36 c121 -80 158 -127 79 -101 -35 11 -155 113 -155 131 0 16 16 10 76
-30z m865 -27 c33 -49 32 -69 -2 -38 -19 16 -49 72 -49 89 0 13 21 -8 51 -51z
m-117 -125 c-12 -20 -34 -8 -34 18 0 25 1 26 20 8 11 -10 17 -22 14 -26z m183
-5 c12 -42 17 -114 7 -114 -4 0 -26 18 -50 40 -24 22 -55 46 -69 52 -29 13
-33 28 -7 28 9 1 33 9 52 20 19 11 39 18 45 16 5 -1 15 -20 22 -42z m392 -14
c74 -92 116 -248 92 -338 -18 -67 -26 -71 -66 -32 -19 19 -35 36 -35 39 0 4
20 14 45 25 l45 18 -31 36 c-50 57 -93 157 -97 230 -3 35 0 62 5 62 5 0 24
-18 42 -40z m-259 -127 c1 -10 14 -51 30 -92 l29 -75 -53 53 -54 53 17 39 c17
41 31 51 31 22z m-400 -106 c0 -4 -28 7 -62 24 l-61 31 39 17 39 18 22 -41
c12 -23 22 -44 23 -49z m210 -5 c0 -14 -68 46 -82 73 -6 11 10 0 36 -25 25
-24 46 -46 46 -48z"/>
</g>
</svg>
